<svg width="21" height="23" viewBox="0 0 21 23" fill="none" xmlns="http://www.w3.org/2000/svg">
<path d="M5.6 0V14.6395C5.15139 14.4702 4.67793 14.3807 4.2 14.375C3.36932 14.375 2.55729 14.6279 1.86661 15.1018C1.17592 15.5757 0.637596 16.2492 0.319708 17.0372C0.0018198 17.8252 -0.0813542 18.6923 0.0807037 19.5288C0.242762 20.3654 0.642773 21.1338 1.23015 21.7369C1.81753 22.34 2.5659 22.7507 3.38062 22.9171C4.19534 23.0835 5.03982 22.9981 5.80727 22.6717C6.57472 22.3453 7.23067 21.7926 7.69217 21.0834C8.15367 20.3742 8.4 19.5404 8.4 18.6875V4.3125H18.2V10.327C17.7514 10.1577 17.2779 10.0682 16.8 10.0625C15.9693 10.0625 15.1573 10.3154 14.4666 10.7893C13.7759 11.2632 13.2376 11.9367 12.9197 12.7247C12.6018 13.5127 12.5186 14.3798 12.6807 15.2163C12.8428 16.0529 13.2428 16.8213 13.8302 17.4244C14.4175 18.0275 15.1659 18.4382 15.9806 18.6046C16.7953 18.771 17.6398 18.6856 18.4073 18.3592C19.1747 18.0328 19.8307 17.4801 20.2922 16.7709C20.7537 16.0617 21 15.2279 21 14.375V0H5.6Z" fill="white"/>
</svg>
