<svg width="19" height="18" viewBox="0 0 19 18" fill="none" xmlns="http://www.w3.org/2000/svg">
<path fill-rule="evenodd" clip-rule="evenodd" d="M9.5 0C4.25315 0 1.57295e-06 4.02925 1.57295e-06 8.99989C-0.000803837 10.3259 0.307701 11.6357 0.903452 12.8356L0.0199515 16.9189C-0.0115039 17.0647 -0.00430944 17.2156 0.040891 17.3581C0.0860914 17.5006 0.167887 17.6303 0.278957 17.7355C0.390026 17.8407 0.526902 17.9182 0.677334 17.961C0.827766 18.0039 0.987058 18.0107 1.14095 17.9809L5.4511 17.1439C6.6804 17.6929 8.0541 17.9989 9.5 17.9989C14.7469 17.9989 19 13.9705 19 8.99898C19 4.02925 14.7469 0 9.5 0Z" fill="#696667"/>
</svg>
