<svg width="22" height="28" viewBox="0 0 22 28" fill="none" xmlns="http://www.w3.org/2000/svg">
<path d="M19.9099 12.7559C19.5485 12.2892 19.1086 11.8848 18.7001 11.4803C17.6475 10.547 16.4534 9.87806 15.4479 8.89803C13.1069 6.62686 12.5884 2.87786 14.081 0C12.5884 0.357788 11.2843 1.1667 10.1688 2.05339C6.09957 5.28904 4.49701 10.9981 6.4138 15.8982C6.47665 16.0538 6.53949 16.2094 6.53949 16.4116C6.53949 16.7538 6.30382 17.0649 5.98959 17.1894C5.62823 17.3449 5.25116 17.2516 4.95264 17.0027C4.86347 16.9287 4.78889 16.8391 4.73268 16.7383C2.95729 14.5137 2.67448 11.3248 3.86855 8.77358C1.24475 10.8892 -0.184991 14.4671 0.0192571 17.8427C0.113526 18.6205 0.207794 19.3983 0.474888 20.1761C0.694848 21.1095 1.11906 22.0429 1.5904 22.8673C3.28723 25.5585 6.22526 27.4875 9.38326 27.8764C12.7455 28.2964 16.3434 27.6897 18.9201 25.3874C21.7953 22.8051 22.8008 18.6672 21.3239 15.1204L21.1197 14.716C20.7897 14.0004 19.9099 12.7559 19.9099 12.7559ZM14.9451 22.5562C14.5052 22.9295 13.7825 23.334 13.2168 23.4896C11.4572 24.1118 9.69749 23.2407 8.66053 22.214C10.5302 21.7784 11.6457 20.4095 11.9756 19.025C12.2427 17.7805 11.74 16.7538 11.5357 15.556C11.3472 14.4049 11.3786 13.4248 11.8028 12.3515C12.1013 12.9426 12.4156 13.5337 12.7926 14.0004C14.0024 15.556 15.9035 16.2405 16.312 18.3561C16.3748 18.5739 16.4063 18.7916 16.4063 19.025C16.4534 20.3006 15.8878 21.7006 14.9451 22.5562Z" fill="white"/>
</svg>
