<svg width="29" height="21" viewBox="0 0 29 21" fill="none" xmlns="http://www.w3.org/2000/svg">
<path d="M23.8507 13.0225C22.692 13.6601 21.3612 13.9954 20.0052 13.9915C18.8692 13.9833 17.7461 13.773 16.6998 13.3725C15.8934 14.403 15.4618 15.6354 15.4651 16.8982V20.1232C15.4654 20.2431 15.4384 20.3618 15.3859 20.472C15.3333 20.5821 15.2564 20.6812 15.1597 20.7633C15.0631 20.8453 14.9488 20.9085 14.8241 20.9489C14.6993 20.9893 14.5667 21.006 14.4345 20.9981C14.1861 20.9785 13.955 20.8746 13.7877 20.7073C13.6203 20.54 13.529 20.3216 13.5321 20.0959V18.7354L8.86625 14.512C8.17266 14.7462 7.43913 14.8687 6.69887 14.874C5.67975 14.8764 4.67971 14.624 3.80902 14.1446C1.1765 12.6967 -0.240637 9.3645 0.0336083 5.22746C0.0474166 5.01343 0.147568 4.81144 0.315047 4.65984C0.482527 4.50824 0.705674 4.41758 0.942123 4.40508C5.51248 4.16121 9.19366 5.43961 10.7884 7.82254C11.4149 8.75656 11.6885 9.84984 11.5676 10.9371C11.5601 11.0213 11.5258 11.1018 11.4689 11.1687C11.4119 11.2357 11.3347 11.2863 11.2467 11.3144C11.1586 11.3425 11.0635 11.3469 10.9727 11.3271C10.8819 11.3073 10.7995 11.2642 10.7352 11.2028L8.41562 9.00471C8.23289 8.84756 7.98957 8.76125 7.73755 8.76417C7.48552 8.76709 7.24472 8.85902 7.0665 9.02034C6.88827 9.18167 6.78672 9.39964 6.78349 9.62777C6.78027 9.8559 6.87562 10.0762 7.04922 10.2416L13.5586 16.2836C13.5659 16.1983 13.5743 16.113 13.584 16.0288C13.7954 14.4068 14.5861 12.8915 15.836 11.7135L21.9479 5.86721C22.1292 5.70319 22.2312 5.48068 22.2313 5.24862C22.2314 5.01657 22.1297 4.79397 21.9485 4.62981C21.7673 4.46565 21.5215 4.37337 21.2651 4.37327C21.0088 4.37317 20.7629 4.46525 20.5815 4.62927L14.6617 10.2962C14.6024 10.353 14.5274 10.3945 14.4445 10.4162C14.3616 10.4379 14.2737 10.4391 14.1901 10.4196C14.1065 10.4002 14.0302 10.3609 13.9691 10.3057C13.9079 10.2506 13.8643 10.1816 13.8425 10.106C13.2699 8.19436 13.5224 6.29152 14.6157 4.6577C16.7735 1.43381 21.7945 -0.291875 28.0477 0.0405756C28.2842 0.0530746 28.5073 0.14373 28.6748 0.295331C28.8423 0.446932 28.9425 0.648922 28.9563 0.862953C29.3187 6.52445 27.4123 11.0694 23.8507 13.0225Z" fill="#2D9C23"/>
</svg>
