<svg width="26" height="17" viewBox="0 0 26 17" fill="none" xmlns="http://www.w3.org/2000/svg">
<path d="M17.3332 8.49999C16.2195 8.49999 15.1427 8.05664 14.2999 7.25204C13.4803 6.46724 12.9798 5.42068 12.8915 4.30602C12.7973 3.11699 13.2041 2.02358 14.0366 1.2267C14.8692 0.429829 16.0332 0 17.3332 0C18.624 0 19.7913 0.437556 20.6211 1.2325C21.459 2.03517 21.8669 3.12664 21.7727 4.30553C21.6822 5.42164 21.1822 6.46772 20.3643 7.25155C19.5237 8.05664 18.4474 8.49999 17.3332 8.49999ZM24.4739 17H10.193C9.96336 17.0011 9.73654 16.9552 9.52994 16.8659C9.32335 16.7765 9.1425 16.6461 9.00131 16.4847C8.85154 16.3097 8.74811 16.1067 8.69877 15.891C8.64943 15.6753 8.65546 15.4525 8.71639 15.2391C9.17247 13.6063 10.3024 12.2521 11.9837 11.3233C13.476 10.4994 15.3756 10.0454 17.3332 10.0454C19.3292 10.0454 21.179 10.4801 22.6799 11.3035C24.3651 12.2274 25.4966 13.5894 25.9505 15.242C26.0107 15.4555 26.0161 15.6784 25.9662 15.8939C25.9163 16.1095 25.8124 16.3123 25.6623 16.4871C25.5213 16.6478 25.3409 16.7775 25.1349 16.8664C24.9289 16.9554 24.7028 17.001 24.4739 17ZM7.09573 8.69317C5.18962 8.69317 3.51371 7.11295 3.35825 5.17099C3.28134 4.1761 3.62909 3.25608 4.33325 2.58139C5.02983 1.91346 6.01241 1.54545 7.09573 1.54545C8.17906 1.54545 9.15406 1.9154 9.85443 2.58718C10.564 3.26718 10.9107 4.18528 10.8294 5.17195C10.674 7.11343 8.9986 8.69317 7.09573 8.69317ZM10.6523 10.2121C9.69951 9.79672 8.46289 9.58905 7.09628 9.58905C5.50053 9.58905 3.95083 9.95996 2.73209 10.6332C1.35031 11.3977 0.420811 12.5109 0.0454382 13.855C-0.00949462 14.0483 -0.0146903 14.2502 0.0302398 14.4456C0.0751699 14.6409 0.169063 14.8247 0.304895 14.9832C0.433783 15.1307 0.598902 15.2499 0.787554 15.3316C0.976205 15.4133 1.18336 15.4554 1.3931 15.4545H7.40557C7.50705 15.4545 7.6053 15.4227 7.68321 15.3648C7.76111 15.3068 7.81372 15.2263 7.83186 15.1372C7.83781 15.1068 7.8454 15.0764 7.85406 15.0464C8.31339 13.4015 9.38968 12.0115 10.98 10.9983C11.0385 10.9607 11.0855 10.9107 11.1169 10.8528C11.1482 10.7949 11.1629 10.7309 11.1595 10.6667C11.1561 10.6025 11.1348 10.5401 11.0975 10.485C11.0602 10.43 11.0081 10.3842 10.9459 10.3516C10.8608 10.3072 10.7633 10.2604 10.6523 10.2121Z" fill="#696667"/>
</svg>
