<svg width="33" height="33" viewBox="0 0 33 33" fill="none" xmlns="http://www.w3.org/2000/svg">
<path d="M21.6562 28.875H1.03125C0.464062 28.875 0 29.3391 0 29.9062V31.9688C0 32.5359 0.464062 33 1.03125 33H21.6562C22.2234 33 22.6875 32.5359 22.6875 31.9688V29.9062C22.6875 29.3391 22.2234 28.875 21.6562 28.875ZM31.7883 6.91582L26.5676 1.69512C26.168 1.29551 25.5105 1.29551 25.1109 1.69512L24.3826 2.42344C23.983 2.82305 23.983 3.48047 24.3826 3.88008L26.8125 6.30996V10.3125C26.8125 12.1236 28.1596 13.6189 29.9062 13.8703V24.2344C29.9062 25.0852 29.2102 25.7812 28.3594 25.7812C27.5086 25.7812 26.8125 25.0852 26.8125 24.2344V22.1719C26.8125 19.0395 24.273 16.5 21.1406 16.5H20.625V4.125C20.625 1.8498 18.7752 0 16.5 0H6.1875C3.9123 0 2.0625 1.8498 2.0625 4.125V26.8125H20.625V19.5938H21.1406C22.565 19.5938 23.7188 20.7475 23.7188 22.1719V23.9637C23.7188 26.3936 25.459 28.6043 27.876 28.8557C30.6475 29.1328 33 26.9543 33 24.2344V9.83555C33 8.73984 32.5617 7.68926 31.7883 6.91582ZM16.5 12.375H6.1875V4.125H16.5V12.375Z" fill="white"/>
</svg>
