<svg width="11" height="13" viewBox="0 0 11 13" fill="none" xmlns="http://www.w3.org/2000/svg">
<path d="M5.37665 12.0943C2.40368 12.0943 0 9.39086 0 6.04714C0 2.70343 2.40368 0 5.37665 0C8.34962 0 10.7533 2.70343 10.7533 6.04714C10.7533 9.39086 8.34962 12.0943 5.37665 12.0943ZM5.37665 0.711429C2.75158 0.711429 0.632547 3.09471 0.632547 6.04714C0.632547 8.99957 2.75158 11.3829 5.37665 11.3829C8.00172 11.3829 10.1208 8.99957 10.1208 6.04714C10.1208 3.09471 8.00172 0.711429 5.37665 0.711429Z" fill="#6FBCFF"/>
<path d="M4.74401 8.67939L1.99243 5.58468L2.43521 5.08668L4.74401 7.68339L8.3179 3.66382L8.76069 4.16182L4.74401 8.67939Z" fill="#6FBCFF"/>
</svg>
