<svg width="88" height="91" viewBox="0 0 88 91" fill="none" xmlns="http://www.w3.org/2000/svg">
<circle cx="42.4054" cy="48.5946" r="40.4054" fill="#0B62D0" stroke="#A0D2FE" stroke-width="4"/>
<circle cx="42.4054" cy="48.5946" r="30.2162" fill="#0B62D0" stroke="#A0D2FE" stroke-width="4"/>
<path d="M75.6365 33.3479L75.6365 33.3479L75.64 33.3384L77.3379 28.6665L82.0051 26.9688C82.556 26.7714 83.0321 26.4079 83.3676 25.9284L82.1387 25.0684C82.2967 24.8425 82.3805 24.573 82.3784 24.2973L83.8784 24.3089C83.8784 24.305 83.8784 24.3011 83.8784 24.2973C83.8805 23.714 83.7022 23.1442 83.3676 22.6661L82.1794 23.4976L83.3676 22.6661C83.0321 22.1865 82.5559 21.823 82.0049 21.6257L77.3387 19.9287L75.6399 15.2559L75.64 15.2559L75.6365 15.2466C75.4345 14.7023 75.0708 14.2328 74.5942 13.9012C74.1176 13.5696 73.5508 13.3918 72.9702 13.3918C72.3895 13.3918 71.8228 13.5696 71.3461 13.9012C70.8695 14.2328 70.5058 14.7023 70.3038 15.2466L70.3038 15.2466L70.3003 15.2561L68.6024 19.9287L63.9314 21.6271L63.9314 21.6271L63.9218 21.6306C63.3775 21.8328 62.9081 22.1966 62.5767 22.6733C62.2452 23.15 62.0676 23.7167 62.0676 24.2973C62.0676 24.8778 62.2452 25.4445 62.5767 25.9212C62.9081 26.3979 63.3775 26.7618 63.9218 26.9639L63.9218 26.9639L63.9314 26.9674L68.6024 28.6658L70.3003 33.3384L70.3003 33.3384L70.3038 33.3479C70.5058 33.8922 70.8695 34.3617 71.3461 34.6933L72.1848 33.4878L71.3461 34.6933C71.8228 35.0249 72.3895 35.2027 72.9702 35.2027C73.5508 35.2027 74.1176 35.0249 74.5942 34.6933L73.7376 33.462L74.5942 34.6933C75.0708 34.3617 75.4345 33.8922 75.6365 33.3479Z" fill="#A0D2FE" stroke="#092F5B" stroke-width="3"/>
<path d="M69.8378 3.91892C69.8387 4.0338 69.8038 4.14611 69.7379 4.24023C69.6721 4.33435 69.5785 4.40561 69.4703 4.44409L67.2499 5.25181L66.4427 7.47259C66.403 7.5798 66.3313 7.67226 66.2375 7.73755C66.1436 7.80284 66.032 7.83784 65.9177 7.83784C65.8034 7.83784 65.6918 7.80284 65.598 7.73755C65.5041 7.67226 65.4325 7.5798 65.3927 7.47259L64.5856 5.25146L62.3651 4.44409C62.258 4.4043 62.1655 4.33265 62.1003 4.23877C62.035 4.14489 62 4.03327 62 3.91892C62 3.80457 62.035 3.69295 62.1003 3.59907C62.1655 3.50519 62.258 3.43354 62.3651 3.39375L64.5856 2.58638L65.3927 0.365249C65.4325 0.258042 65.5041 0.165582 65.598 0.10029C65.6918 0.034997 65.8034 0 65.9177 0C66.032 0 66.1436 0.034997 66.2375 0.10029C66.3313 0.165582 66.403 0.258042 66.4427 0.365249L67.2502 2.58638L69.4703 3.39375C69.5785 3.43223 69.6721 3.50349 69.7379 3.59761C69.8038 3.69173 69.8387 3.80403 69.8378 3.91892Z" fill="#A0D2FE"/>
<path d="M87.8648 10.1892C87.8664 10.396 87.8035 10.5981 87.685 10.7675C87.5664 10.937 87.3981 11.0652 87.2033 11.1345L83.2065 12.5884L81.7536 16.5858C81.682 16.7788 81.5531 16.9452 81.3842 17.0627C81.2152 17.1802 81.0144 17.2432 80.8086 17.2432C80.6028 17.2432 80.402 17.1802 80.2331 17.0627C80.0641 16.9452 79.9352 16.7788 79.8636 16.5858L78.4108 12.5878L74.414 11.1345C74.221 11.0629 74.0547 10.9339 73.9372 10.7649C73.8197 10.5959 73.7567 10.395 73.7567 10.1892C73.7567 9.98335 73.8197 9.78244 73.9372 9.61346C74.0547 9.44447 74.221 9.3155 74.414 9.24388L78.4108 7.79062L79.8636 3.79258C79.9352 3.59961 80.0641 3.43318 80.2331 3.31565C80.402 3.19813 80.6028 3.13513 80.8086 3.13513C81.0144 3.13513 81.2152 3.19813 81.3842 3.31565C81.5531 3.43318 81.682 3.59961 81.7536 3.79258L83.2071 7.79062L87.2033 9.24388C87.3981 9.31315 87.5664 9.44141 87.685 9.61083C87.8035 9.78024 87.8664 9.98239 87.8648 10.1892Z" fill="#A0D2FE"/>
<path d="M53.9592 48.4896C53.9618 48.8312 53.858 49.1651 53.6621 49.4449C53.4662 49.7248 53.188 49.9366 52.8662 50.0511L46.2623 52.4526L43.8619 59.0554C43.7435 59.3741 43.5305 59.649 43.2514 59.8432C42.9723 60.0373 42.6404 60.1413 42.3004 60.1413C41.9604 60.1413 41.6286 60.0373 41.3494 59.8432C41.0703 59.649 40.8573 59.3741 40.739 59.0554L38.3385 52.4515L31.7346 50.0511C31.4159 49.9328 31.141 49.7197 30.9469 49.4406C30.7527 49.1615 30.6487 48.8296 30.6487 48.4896C30.6487 48.1496 30.7527 47.8178 30.9469 47.5386C31.141 47.2595 31.4159 47.0465 31.7346 46.9282L38.3385 44.5277L40.739 37.9238C40.8573 37.6051 41.0703 37.3302 41.3494 37.1361C41.6286 36.9419 41.9604 36.8379 42.3004 36.8379C42.6404 36.8379 42.9723 36.9419 43.2514 37.1361C43.5305 37.3302 43.7435 37.6051 43.8619 37.9238L46.2634 44.5277L52.8662 46.9282C53.188 47.0426 53.4662 47.2545 53.6621 47.5343C53.858 47.8141 53.9618 48.148 53.9592 48.4896Z" fill="#A0D2FE"/>
</svg>
