<svg width="23" height="18" viewBox="0 0 23 18" fill="none" xmlns="http://www.w3.org/2000/svg">
<path d="M21.3267 15.685C21.2146 15.9777 20.9796 16.2186 20.6726 16.3556C20.3656 16.4927 20.0113 16.5148 19.6864 16.4172C19.3615 16.3196 19.0921 16.1102 18.9366 15.8343C18.7811 15.5584 18.752 15.2381 18.8556 14.9429C19.3067 13.6986 19.5344 12.3968 19.53 11.0873C19.53 5.83815 15.9417 2.35599 11.067 2.35599C6.19234 2.35599 2.60404 5.83815 2.60404 11.0873C2.60404 12.4302 2.8358 13.7343 3.27848 14.9429C3.38203 15.2381 3.3529 15.5584 3.1974 15.8343C3.0419 16.1102 2.77254 16.3196 2.44764 16.4172C2.12273 16.5148 1.76842 16.4927 1.46142 16.3556C1.15441 16.2186 0.919409 15.9777 0.807288 15.685C0.268277 14.2013 -0.00426271 12.6491 5.04006e-05 11.0873C5.04006e-05 4.57298 4.71197 0 11.067 0C17.4221 0 22.134 4.57298 22.134 11.0873C22.134 12.6823 21.858 14.2361 21.3267 15.685Z" fill="#696667"/>
<path d="M5.82985 17.9998C4.79799 17.9818 3.81591 17.5951 3.09819 16.9241C2.38047 16.2531 1.98543 15.3524 1.99938 14.4187V14.3928C2.00667 13.9305 2.11478 13.4742 2.31752 13.0499C2.52025 12.6255 2.81362 12.2416 3.18078 11.9202C3.54794 11.5987 3.98166 11.346 4.45704 11.1766C4.93242 11.0072 5.4401 10.9244 5.95094 10.933C6.29467 10.9392 6.62174 11.0681 6.86078 11.2917C7.09982 11.5152 7.23143 11.8153 7.22689 12.1263L7.15659 16.8383C7.15422 16.9935 7.11797 17.1467 7.04992 17.2892C6.98188 17.4317 6.88338 17.5606 6.76009 17.6686C6.6368 17.7765 6.49115 17.8613 6.33151 17.9182C6.17186 17.975 6.00138 18.0027 5.82985 17.9998ZM16.3916 10.8918C17.4235 10.9097 18.4056 11.2965 19.1233 11.9675C19.841 12.6385 20.2361 13.5392 20.2221 14.4729V14.4988C20.2077 15.429 19.7858 16.316 19.049 16.965C18.3122 17.6139 17.3209 17.9717 16.2927 17.9597H16.2719C15.9277 17.9538 15.6001 17.8249 15.3607 17.601C15.1214 17.3772 14.9897 17.0767 14.9946 16.7652L15.0649 12.0533C15.0673 11.8981 15.1035 11.7448 15.1716 11.6023C15.2396 11.4598 15.3381 11.3309 15.4614 11.223C15.5847 11.115 15.7304 11.0302 15.89 10.9734C16.0496 10.9165 16.2201 10.8888 16.3916 10.8918Z" fill="#696667"/>
</svg>
