<svg width="33" height="36" viewBox="0 0 33 36" fill="none" xmlns="http://www.w3.org/2000/svg">
<path opacity="0.25" d="M31.695 8.98461L16.1034 18.0024L0.511719 8.98461C0.833126 8.43149 1.28935 7.96875 1.83786 7.63953L14.2089 0.497303C15.3835 -0.165768 16.8233 -0.165768 17.9979 0.497303L30.3689 7.63953C30.9183 7.96727 31.3748 8.43142 31.695 8.98461Z" fill="#1784E2"/>
<path opacity="0.5" d="M16.1032 18.0024V36C15.5059 35.9985 14.9167 35.8625 14.3792 35.6022L1.89449 28.3842C1.31906 28.052 0.841116 27.5743 0.508597 26.999C0.176079 26.4237 0.000681527 25.7712 0 25.1067V10.8981C0.00312723 10.2269 0.179305 9.56783 0.511512 8.98462L16.1032 18.0024Z" fill="#1784E2"/>
<path d="M32.2062 10.8981V25.1067C32.2055 25.7712 32.0301 26.4237 31.6976 26.999C31.3651 27.5743 30.8871 28.052 30.3117 28.3842L17.7702 35.6211C17.2492 35.8674 16.679 35.9962 16.103 36V18.0024L31.6947 8.98462C32.0262 9.56812 32.2024 10.2274 32.2062 10.8981Z" fill="#1784E2"/>
</svg>
