<svg width="44" height="44" viewBox="0 0 44 44" fill="none" xmlns="http://www.w3.org/2000/svg">
<path d="M20.1667 26.5834C20.1667 29.1134 24.2715 31.1667 29.3333 31.1667C34.3952 31.1667 38.5 29.1134 38.5 26.5834M5.5 17.4167C5.5 19.9467 9.60483 22 14.6667 22C16.731 22 18.6358 21.659 20.1667 21.0834M5.5 23.8334C5.5 26.3634 9.60483 28.4167 14.6667 28.4167C16.731 28.4167 18.634 28.0757 20.1667 27.5M29.3333 23.8334C24.2715 23.8334 20.1667 21.78 20.1667 19.25C20.1667 16.72 24.2715 14.6667 29.3333 14.6667C34.3952 14.6667 38.5 16.72 38.5 19.25C38.5 21.78 34.3952 23.8334 29.3333 23.8334Z" stroke="white" stroke-width="1.5" stroke-linecap="round" stroke-linejoin="round"/>
<path d="M5.5 10.0833V30.25C5.5 32.78 9.60483 34.8333 14.6667 34.8333C16.731 34.8333 18.634 34.4923 20.1667 33.9166M20.1667 33.9166V19.25M20.1667 33.9166C20.1667 36.4466 24.2715 38.5 29.3333 38.5C34.3952 38.5 38.5 36.4466 38.5 33.9166V19.25M23.8333 15.5833V10.0833" stroke="white" stroke-width="1.5" stroke-linecap="round" stroke-linejoin="round"/>
<path d="M14.6667 14.6667C9.60483 14.6667 5.5 12.6133 5.5 10.0833C5.5 7.55333 9.60483 5.5 14.6667 5.5C19.7285 5.5 23.8333 7.55333 23.8333 10.0833C23.8333 12.6133 19.7285 14.6667 14.6667 14.6667Z" stroke="white" stroke-width="1.5" stroke-linecap="round" stroke-linejoin="round"/>
</svg>
