<svg width="34" height="34" viewBox="0 0 34 34" fill="none" xmlns="http://www.w3.org/2000/svg">
<path d="M8.5 14.1666V7.08331C8.5 4.67498 10.3417 2.83331 12.75 2.83331H14.1667" stroke="white" stroke-width="2" stroke-linecap="round" stroke-linejoin="round"/>
<path d="M4.25 9.91663L8.5 14.1666L12.75 9.91663" stroke="white" stroke-width="2" stroke-linecap="round" stroke-linejoin="round"/>
<path d="M25.4999 14.1666C28.6295 14.1666 31.1666 11.6296 31.1666 8.49998C31.1666 5.37037 28.6295 2.83331 25.4999 2.83331C22.3703 2.83331 19.8333 5.37037 19.8333 8.49998C19.8333 11.6296 22.3703 14.1666 25.4999 14.1666Z" stroke="white" stroke-width="2" stroke-linecap="round" stroke-linejoin="round"/>
<path d="M25.4999 19.8333V26.9166C25.4999 29.325 23.6583 31.1666 21.2499 31.1666H19.8333" stroke="white" stroke-width="2" stroke-linecap="round" stroke-linejoin="round"/>
<path d="M29.75 24.0833L25.5 19.8333L21.25 24.0833" stroke="white" stroke-width="2" stroke-linecap="round" stroke-linejoin="round"/>
<path d="M8.49992 31.1666C11.6295 31.1666 14.1666 28.6296 14.1666 25.5C14.1666 22.3704 11.6295 19.8333 8.49992 19.8333C5.3703 19.8333 2.83325 22.3704 2.83325 25.5C2.83325 28.6296 5.3703 31.1666 8.49992 31.1666Z" stroke="white" stroke-width="2" stroke-linecap="round" stroke-linejoin="round"/>
</svg>
