<svg width="87" height="89" viewBox="0 0 87 89" fill="none" xmlns="http://www.w3.org/2000/svg">
<path d="M76.3201 48.2083V31.5208C76.3201 26.6032 74.4281 21.8871 71.0604 18.4099C67.6927 14.9326 63.1251 12.9791 58.3624 12.9791H27.8344C23.0717 12.9791 18.5041 14.9326 15.1364 18.4099C11.7687 21.8871 9.87671 26.6032 9.87671 31.5208V57.4791C9.87671 59.914 10.3412 62.3251 11.2437 64.5747C12.1461 66.8243 13.4689 68.8683 15.1364 70.59C18.5041 74.0673 23.0717 76.0208 27.8344 76.0208H50.3174" stroke="white" stroke-width="3.125" stroke-linecap="round" stroke-linejoin="round"/>
<path d="M10.8105 63.0417L20.6514 51.175C21.9437 49.8497 23.6399 49.0261 25.4528 48.8437C27.2657 48.6612 29.084 49.1311 30.5999 50.1738C32.1158 51.2164 33.9341 51.6863 35.747 51.5039C37.5599 51.3214 39.2561 50.4978 40.5485 49.1725L48.9167 40.5321C51.3212 38.041 54.5048 36.513 57.8993 36.2209C61.2938 35.9289 64.6784 36.8917 67.449 38.9375L76.3201 46.0204M28.7682 37.7138C29.5512 37.7089 30.3255 37.5448 31.047 37.231C31.7686 36.9171 32.4231 36.4596 32.9734 35.8845C33.5237 35.3095 33.9589 34.6281 34.2542 33.8794C34.5494 33.1307 34.699 32.3292 34.6943 31.5208C34.6895 30.7124 34.5307 29.9129 34.2267 29.1679C33.9227 28.4229 33.4796 27.747 32.9226 27.1789C32.3657 26.6107 31.7058 26.1613 30.9807 25.8565C30.2555 25.5516 29.4793 25.3972 28.6964 25.4021C27.1152 25.4119 25.6025 26.0699 24.4912 27.2313C23.3798 28.3927 22.7608 29.9624 22.7704 31.595C22.7799 33.2276 23.4171 34.7895 24.542 35.937C25.6668 37.0845 27.187 37.7236 28.7682 37.7138Z" stroke="white" stroke-width="3.125" stroke-linecap="round" stroke-linejoin="round"/>
<path d="M67.1868 55.625V74.1667" stroke="white" stroke-width="3.125" stroke-miterlimit="10" stroke-linecap="round"/>
<path d="M75.4222 63.431L68.3577 56.1367C68.2041 55.9775 68.0217 55.8512 67.8208 55.765C67.6198 55.6788 67.4044 55.6344 67.1868 55.6344C66.9692 55.6344 66.7538 55.6788 66.5529 55.765C66.3519 55.8512 66.1695 55.9775 66.016 56.1367L58.9514 63.431" stroke="white" stroke-width="3.125" stroke-linecap="round" stroke-linejoin="round"/>
</svg>
