<svg width="50" height="50" viewBox="0 0 50 50" fill="none" xmlns="http://www.w3.org/2000/svg">
<g clip-path="url(#clip0_1_293)">
<path d="M44.9863 27.5508C44.4049 27.1034 43.7281 26.7962 43.0087 26.6529C42.2892 26.5096 41.5463 26.5341 40.8379 26.7246L32.666 28.6035C32.8561 27.8004 32.862 26.9646 32.6832 26.1589C32.5044 25.3532 32.1455 24.5983 31.6335 23.951C31.1215 23.3037 30.4696 22.7807 29.7266 22.4212C28.9837 22.0616 28.1691 21.8749 27.3438 21.875H17.5664C16.7453 21.8729 15.9319 22.0336 15.1733 22.3477C14.4147 22.6618 13.7258 23.1232 13.1465 23.7051L8.72852 28.125H3.125C2.2962 28.125 1.50134 28.4542 0.915291 29.0403C0.32924 29.6263 0 30.4212 0 31.25L0 39.0625C0 39.8913 0.32924 40.6862 0.915291 41.2722C1.50134 41.8583 2.2962 42.1875 3.125 42.1875H23.4375C23.5652 42.1874 23.6925 42.1717 23.8164 42.1406L36.3164 39.0156C36.3961 38.9966 36.4739 38.9705 36.5488 38.9375L44.1406 35.707L44.2266 35.668C44.9562 35.3034 45.581 34.7591 46.0421 34.0863C46.5032 33.4135 46.7855 32.6343 46.8623 31.8223C46.939 31.0103 46.8078 30.1921 46.481 29.4448C46.1542 28.6975 45.6425 28.0457 44.9941 27.5508H44.9863ZM3.125 31.25H7.8125V39.0625H3.125V31.25ZM42.8574 32.8535L35.4355 36.0137L23.2422 39.0625H10.9375V30.334L15.3574 25.916C15.6466 25.6246 15.9907 25.3935 16.37 25.2363C16.7492 25.079 17.1559 24.9987 17.5664 25H27.3438C27.9654 25 28.5615 25.2469 29.001 25.6865C29.4406 26.126 29.6875 26.7222 29.6875 27.3438C29.6875 27.9654 29.4406 28.5615 29.001 29.001C28.5615 29.4406 27.9654 29.6875 27.3438 29.6875H21.875C21.4606 29.6875 21.0632 29.8521 20.7701 30.1451C20.4771 30.4382 20.3125 30.8356 20.3125 31.25C20.3125 31.6644 20.4771 32.0618 20.7701 32.3549C21.0632 32.6479 21.4606 32.8125 21.875 32.8125H28.125C28.2426 32.8122 28.3598 32.7991 28.4746 32.7734L41.5605 29.7637L41.6211 29.748C42.0206 29.6371 42.4469 29.6779 42.8182 29.8625C43.1894 30.047 43.4793 30.3624 43.632 30.7478C43.7847 31.1332 43.7895 31.5615 43.6454 31.9502C43.5013 32.339 43.2186 32.6607 42.8516 32.8535H42.8574ZM32.0312 18.75C32.4173 18.7504 32.8027 18.7191 33.1836 18.6563C33.612 19.9288 34.3959 21.0521 35.4424 21.8933C36.489 22.7344 37.7546 23.2584 39.0895 23.4031C40.4244 23.5478 41.7728 23.3073 42.9754 22.7099C44.1779 22.1126 45.1843 21.1834 45.8754 20.0322C46.5666 18.8811 46.9138 17.5561 46.8758 16.2139C46.8378 14.8717 46.4163 13.5684 45.6611 12.4582C44.9059 11.348 43.8486 10.4772 42.6142 9.94882C41.3798 9.42045 40.0199 9.25657 38.6953 9.47657C38.2828 8.25048 37.54 7.16197 36.5487 6.33082C35.5575 5.49966 34.3561 4.95809 33.0769 4.7657C31.7976 4.57331 30.4901 4.73755 29.2982 5.24036C28.1063 5.74317 27.0762 6.56505 26.3213 7.61556C25.5664 8.66606 25.1159 9.90447 25.0195 11.1945C24.923 12.4845 25.1843 13.7761 25.7746 14.9272C26.3649 16.0783 27.2613 17.0442 28.3652 17.7187C29.4691 18.3932 30.7376 18.75 32.0312 18.75ZM43.75 16.4063C43.75 17.1788 43.5209 17.9341 43.0917 18.5764C42.6625 19.2188 42.0524 19.7195 41.3386 20.0152C40.6248 20.3108 39.8394 20.3882 39.0817 20.2374C38.3239 20.0867 37.6279 19.7147 37.0816 19.1684C36.5353 18.6221 36.1633 17.9261 36.0126 17.1683C35.8618 16.4106 35.9392 15.6252 36.2348 14.9114C36.5305 14.1976 37.0312 13.5875 37.6736 13.1583C38.3159 12.7291 39.0712 12.5 39.8438 12.5C40.8798 12.5 41.8733 12.9116 42.6059 13.6441C43.3385 14.3767 43.75 15.3703 43.75 16.4063ZM32.0312 7.8125C32.8834 7.81293 33.7121 8.09201 34.3909 8.60719C35.0696 9.12237 35.5614 9.84539 35.791 10.666C34.9908 11.2291 34.3168 11.953 33.8124 12.7914C33.3079 13.6299 32.984 14.5644 32.8613 15.5352C32.5885 15.5941 32.3103 15.6242 32.0312 15.625C30.9952 15.625 30.0017 15.2135 29.2691 14.4809C28.5366 13.7483 28.125 12.7548 28.125 11.7188C28.125 10.6828 28.5366 9.68918 29.2691 8.95662C30.0017 8.22405 30.9952 7.8125 32.0312 7.8125Z" fill="white"/>
</g>
<defs>
<clipPath id="clip0_1_293">
<rect width="50" height="50" fill="white"/>
</clipPath>
</defs>
</svg>
