<svg width="90" height="90" viewBox="0 0 90 90" fill="none" xmlns="http://www.w3.org/2000/svg">
<path d="M33.7499 46.875L24.3749 56.25L33.7499 65.625L43.1249 56.25L33.7499 46.875ZM56.2499 9.375C50.0982 9.3751 44.1741 11.7012 39.6658 15.8868C35.1575 20.0723 32.3986 25.8077 31.9424 31.9425C27.2883 32.2885 22.8313 33.9633 19.1011 36.768C15.3709 39.5727 12.5243 43.3893 10.8994 47.7643C9.27464 52.1393 8.93997 56.8888 9.9352 61.4484C10.9304 66.008 13.2137 70.1861 16.5138 73.4861C19.8138 76.7862 23.9919 79.0695 28.5515 80.0647C33.1112 81.06 37.8607 80.7253 42.2357 79.1005C46.6107 77.4757 50.4273 74.6291 53.2319 70.8988C56.0366 67.1686 57.7114 62.7116 58.0574 58.0575C64.3471 57.5884 70.2102 54.6996 74.4144 49.9981C78.6187 45.2966 80.8369 39.1484 80.6029 32.8456C80.3689 26.5428 77.7009 20.5761 73.1595 16.1993C68.6182 11.8225 62.5571 9.37636 56.2499 9.375ZM57.4612 50.5838C56.4107 46.2041 54.169 42.2004 50.9843 39.0156C47.7996 35.8309 43.7959 33.5893 39.4162 32.5387C39.6488 29.313 40.8035 26.2219 42.7428 23.6337C44.6821 21.0455 47.3243 19.069 50.3549 17.9397C53.3855 16.8104 56.6768 16.5757 59.8369 17.2636C62.9971 17.9516 65.893 19.5331 68.1799 21.82C70.4668 24.1069 72.0484 27.0028 72.7363 30.163C73.4242 33.3232 73.1896 36.6144 72.0602 39.645C70.9309 42.6756 68.9545 45.3178 66.3662 47.2571C63.778 49.1964 60.687 50.3511 57.4612 50.5838ZM50.6249 56.25C50.6249 60.7255 48.847 65.0177 45.6824 68.1824C42.5177 71.3471 38.2255 73.125 33.7499 73.125C29.2744 73.125 24.9822 71.3471 21.8175 68.1824C18.6528 65.0177 16.8749 60.7255 16.8749 56.25C16.8749 51.7745 18.6528 47.4823 21.8175 44.3176C24.9822 41.1529 29.2744 39.375 33.7499 39.375C38.2255 39.375 42.5177 41.1529 45.6824 44.3176C48.847 47.4823 50.6249 51.7745 50.6249 56.25ZM11.2499 26.25C11.2499 22.2718 12.8303 18.4564 15.6433 15.6434C18.4564 12.8304 22.2717 11.25 26.2499 11.25H31.8749V18.75H26.2499C24.2608 18.75 22.3532 19.5402 20.9466 20.9467C19.5401 22.3532 18.7499 24.2609 18.7499 26.25V31.875H11.2499V26.25ZM71.2499 63.75V58.125H78.7499V63.75C78.7499 67.7282 77.1696 71.5436 74.3565 74.3566C71.5435 77.1696 67.7282 78.75 63.7499 78.75H58.1249V71.25H63.7499C65.7391 71.25 67.6467 70.4598 69.0532 69.0533C70.4598 67.6468 71.2499 65.7391 71.2499 63.75Z" fill="white"/>
</svg>
