<svg width="20" height="20" viewBox="0 0 20 20" fill="none" xmlns="http://www.w3.org/2000/svg">
<path d="M2.5 11.4717L3.1225 11.525C3.10815 11.6851 3.0327 11.8335 2.9118 11.9394C2.79091 12.0453 2.63387 12.1005 2.4733 12.0937C2.31273 12.0868 2.16098 12.0183 2.04957 11.9025C1.93815 11.7867 1.87563 11.6324 1.875 11.4717H2.5ZM16.8633 9.95252L16.275 6.55252L17.5075 6.33919L18.095 9.73919L16.8633 9.95252ZM11.0375 2.29169H7.16333V1.04169H11.0375V2.29169ZM6.40417 2.99002L5.7275 10.8167L4.48167 10.7092L5.15917 2.88169L6.40417 2.99002ZM16.275 6.55252C15.8525 4.11085 13.6508 2.29169 11.0375 2.29169V1.04169C14.2258 1.04169 16.9758 3.26585 17.5075 6.33919L16.275 6.55252ZM11.0458 15.75L10.4933 12.3792L11.7267 12.1775L12.2792 15.5475L11.0458 15.75ZM5.99 11.4617L7.18917 12.495L6.3725 13.4425L5.17333 12.4092L5.99 11.4617ZM9.37 15.8567L9.76667 17.385L8.55667 17.6984L8.16 16.1709L9.37 15.8567ZM10.365 17.685L10.4858 17.6459L10.8683 18.8359L10.7475 18.875L10.365 17.685ZM8.77 14.32C9.03 14.8067 9.23167 15.3225 9.37 15.8567L8.16 16.1709C8.04517 15.7323 7.87961 15.3086 7.66667 14.9084L8.77 14.32ZM10.4858 17.6459C10.6046 17.6095 10.7122 17.5439 10.799 17.455C10.8858 17.3662 10.9489 17.2562 10.9825 17.1367L12.1925 17.4509C12.1067 17.7748 11.9403 18.0717 11.7088 18.3139C11.4772 18.5561 11.1881 18.7356 10.8683 18.8359L10.4858 17.6459ZM9.76667 17.385C9.78302 17.4452 9.81239 17.501 9.85272 17.5485C9.89304 17.596 9.94332 17.6341 10 17.66L9.4575 18.7859C9.23722 18.6811 9.04247 18.5295 8.88688 18.3417C8.73128 18.1538 8.61858 17.9343 8.55667 17.6984L9.76667 17.385ZM10 17.66C10.1141 17.7142 10.2445 17.7231 10.365 17.685L10.7475 18.875C10.3219 19.0111 9.86035 18.9792 9.4575 18.7859L10 17.66ZM11.795 10.8467H16.1117V12.0967H11.795V10.8467ZM3.9325 2.16169L3.1225 11.525L1.8775 11.4175L2.68583 2.05419L3.9325 2.16169ZM3.125 2.07252V11.4717H1.875V2.07252H3.125ZM2.68583 2.05419C2.68329 2.08447 2.68791 2.11495 2.69778 2.1437C2.70765 2.17244 2.72339 2.19882 2.744 2.22115C2.76461 2.24349 2.78964 2.26129 2.8175 2.27344C2.84536 2.28558 2.87544 2.29179 2.90583 2.29169V1.04169C3.51083 1.04169 3.98417 1.56002 3.9325 2.16169L2.68583 2.05419ZM12.2792 15.5475C12.3833 16.1809 12.3542 16.8292 12.1925 17.4509L10.9825 17.1367C11.0992 16.6842 11.1217 16.2117 11.0458 15.75L12.2792 15.5475ZM7.16333 2.29169C6.97238 2.29204 6.78849 2.36394 6.64795 2.49322C6.50741 2.6225 6.42043 2.79976 6.40417 2.99002L5.15917 2.88169C5.20253 2.37989 5.4324 1.91256 5.80342 1.57193C6.17444 1.2313 6.65966 1.04211 7.16333 1.04169V2.29169ZM7.18917 12.495C7.75583 12.9834 8.36583 13.5642 8.77 14.32L7.66667 14.9084C7.37833 14.3675 6.91917 13.9125 6.3725 13.4425L7.18917 12.495ZM18.095 9.73919C18.1452 10.0284 18.1315 10.325 18.055 10.6084C17.9784 10.8917 17.8409 11.1549 17.6519 11.3795C17.463 11.6041 17.2272 11.7846 16.9612 11.9085C16.6951 12.0324 16.4052 12.0966 16.1117 12.0967V10.8467C16.223 10.8466 16.3329 10.8222 16.4338 10.7752C16.5346 10.7282 16.624 10.6597 16.6956 10.5745C16.7672 10.4894 16.8193 10.3895 16.8483 10.2821C16.8773 10.1746 16.8824 10.0622 16.8633 9.95252L18.095 9.73919ZM2.90583 2.29169C2.96396 2.29169 3.01971 2.2686 3.06081 2.22749C3.10191 2.18639 3.125 2.13065 3.125 2.07252H1.875C1.875 1.50419 2.33583 1.04169 2.90583 1.04169V2.29169ZM10.4933 12.3792C10.4623 12.1904 10.4727 11.9971 10.5238 11.8127C10.5749 11.6283 10.6655 11.4572 10.7893 11.3113C10.9132 11.1654 11.0673 11.0482 11.2409 10.9679C11.4146 10.8875 11.6036 10.8467 11.795 10.8467V12.0967C11.7533 12.0967 11.72 12.1342 11.7267 12.1775L10.4933 12.3792ZM5.7275 10.8167C5.71734 10.9374 5.73507 11.0587 5.78084 11.1708C5.82661 11.2829 5.89829 11.3826 5.99 11.4617L5.17333 12.4092C4.93179 12.2007 4.74314 11.938 4.6229 11.6424C4.50266 11.3469 4.45426 11.0271 4.48167 10.7092L5.7275 10.8167Z" fill="black"/>
</svg>
