<svg width="40" height="40" viewBox="0 0 40 40" fill="none" xmlns="http://www.w3.org/2000/svg">
<path fill-rule="evenodd" clip-rule="evenodd" d="M10.49 2.08331H29.51C29.9634 2.08331 30.275 2.08331 30.55 2.10831C33.6134 2.38998 35.9684 4.92165 36.2267 8.01831C36.25 8.29831 36.25 8.61831 36.25 9.09831V33.765C36.25 35.0533 35.4467 36.025 34.4267 36.3816C33.8826 36.574 33.2904 36.5822 32.7412 36.4052C32.1919 36.2281 31.716 35.8755 31.3867 35.4016C31.37 35.3728 31.3451 35.3495 31.315 35.335C31.2945 35.3263 31.2724 35.3218 31.25 35.3218C31.2277 35.3218 31.2056 35.3263 31.185 35.335C31.155 35.3495 31.13 35.3728 31.1134 35.4016L30.3917 36.41C30.0664 36.8752 29.6338 37.2551 29.1303 37.5173C28.6269 37.7796 28.0677 37.9166 27.5 37.9166C26.9324 37.9166 26.3731 37.7796 25.8697 37.5173C25.3663 37.2551 24.9336 36.8752 24.6084 36.41C24.5144 36.2683 24.3869 36.1521 24.2371 36.0718C24.0873 35.9914 23.92 35.9493 23.75 35.9493C23.5801 35.9493 23.4127 35.9914 23.263 36.0718C23.1132 36.1521 22.9857 36.2683 22.8917 36.41C22.5664 36.8752 22.1338 37.2551 21.6303 37.5173C21.1269 37.7796 20.5677 37.9166 20 37.9166C19.4324 37.9166 18.8731 37.7796 18.3697 37.5173C17.8663 37.2551 17.4336 36.8752 17.1084 36.41C17.0144 36.2683 16.8869 36.1521 16.7371 36.0718C16.5873 35.9914 16.42 35.9493 16.25 35.9493C16.0801 35.9493 15.9127 35.9914 15.763 36.0718C15.6132 36.1521 15.4857 36.2683 15.3917 36.41C15.0664 36.8752 14.6338 37.2551 14.1303 37.5173C13.6269 37.7796 13.0677 37.9166 12.5 37.9166C11.9324 37.9166 11.3731 37.7796 10.8697 37.5173C10.3663 37.2551 9.93363 36.8752 9.60837 36.41L8.8867 35.4016C8.87002 35.3728 8.84506 35.3495 8.81504 35.335C8.79447 35.3263 8.77237 35.3218 8.75004 35.3218C8.7277 35.3218 8.7056 35.3263 8.68504 35.335C8.65501 35.3495 8.63005 35.3728 8.61337 35.4016C8.28404 35.8755 7.80816 36.2281 7.25891 36.4052C6.70967 36.5822 6.11746 36.574 5.57337 36.3816C5.03381 36.1912 4.56762 35.8363 4.24051 35.3668C3.91339 34.8974 3.74184 34.3371 3.75004 33.765V9.09998C3.75004 8.61998 3.75004 8.29998 3.77337 8.01998C4.0317 4.92331 6.3867 2.39165 9.45004 2.10998C9.72504 2.08498 10.0367 2.08498 10.49 2.08498M10.5567 4.58498C10.0117 4.58498 9.82337 4.58498 9.67837 4.59998C7.90837 4.76165 6.42837 6.25165 6.26504 8.22831C6.24911 8.53971 6.2441 8.85157 6.25004 9.16331V33.7666C6.25004 33.8666 6.27837 33.92 6.29837 33.9483C6.32281 33.9828 6.35615 34.0072 6.39837 34.0216C6.42667 34.0318 6.4572 34.0341 6.4867 34.0283C6.49504 34.0266 6.53004 34.015 6.58004 33.9466C6.82443 33.598 7.14925 33.3133 7.52698 33.1168C7.90472 32.9203 8.32424 32.8177 8.75004 32.8177C9.17583 32.8177 9.59536 32.9203 9.97309 33.1168C10.3508 33.3133 10.6756 33.598 10.92 33.9466L11.6417 34.9566C11.7357 35.0983 11.8632 35.2145 12.013 35.2949C12.1627 35.3752 12.3301 35.4173 12.5 35.4173C12.67 35.4173 12.8373 35.3752 12.9871 35.2949C13.1369 35.2145 13.2644 35.0983 13.3584 34.9566C13.6836 34.4914 14.1163 34.1116 14.6197 33.8493C15.1231 33.587 15.6824 33.45 16.25 33.45C16.8177 33.45 17.3769 33.587 17.8803 33.8493C18.3838 34.1116 18.8164 34.4914 19.1417 34.9566C19.2357 35.0983 19.3632 35.2145 19.513 35.2949C19.6627 35.3752 19.8301 35.4173 20 35.4173C20.17 35.4173 20.3373 35.3752 20.4871 35.2949C20.6369 35.2145 20.7644 35.0983 20.8584 34.9566C21.1836 34.4914 21.6163 34.1116 22.1197 33.8493C22.6231 33.587 23.1824 33.45 23.75 33.45C24.3177 33.45 24.8769 33.587 25.3803 33.8493C25.8838 34.1116 26.3164 34.4914 26.6417 34.9566C26.7357 35.0983 26.8632 35.2145 27.013 35.2949C27.1627 35.3752 27.3301 35.4173 27.5 35.4173C27.67 35.4173 27.8373 35.3752 27.9871 35.2949C28.1369 35.2145 28.2644 35.0983 28.3584 34.9566L29.08 33.9466C29.3244 33.598 29.6493 33.3133 30.027 33.1168C30.4047 32.9203 30.8242 32.8177 31.25 32.8177C31.6758 32.8177 32.0954 32.9203 32.4731 33.1168C32.8508 33.3133 33.1756 33.598 33.42 33.9466C33.47 34.0166 33.5034 34.0266 33.5134 34.0283C33.53 34.0333 33.56 34.0366 33.6017 34.0216C33.6415 34.0075 33.6762 33.982 33.7017 33.9483C33.7352 33.8932 33.752 33.8295 33.75 33.765V9.16331C33.75 8.59665 33.75 8.38998 33.735 8.22831C33.57 6.25165 32.0917 4.76165 30.3217 4.59998C30.0298 4.584 29.7373 4.57899 29.445 4.58498H10.5567ZM15.7834 12.45C16.0177 12.2159 16.3355 12.0844 16.6667 12.0844C16.998 12.0844 17.3157 12.2159 17.55 12.45L20 14.9L22.45 12.45C22.687 12.2292 23.0004 12.109 23.3242 12.1147C23.6481 12.1204 23.9571 12.2516 24.1861 12.4806C24.4151 12.7096 24.5463 13.0186 24.552 13.3424C24.5577 13.6663 24.4375 13.9797 24.2167 14.2166L21.7667 16.6666L24.2167 19.1166C24.3395 19.2311 24.438 19.3691 24.5063 19.5224C24.5747 19.6757 24.6114 19.8413 24.6144 20.0091C24.6173 20.1769 24.5864 20.3437 24.5236 20.4993C24.4607 20.655 24.3671 20.7963 24.2484 20.915C24.1297 21.0337 23.9883 21.1273 23.8327 21.1902C23.6771 21.2531 23.5103 21.2839 23.3425 21.281C23.1747 21.278 23.0091 21.2413 22.8558 21.1729C22.7025 21.1046 22.5645 21.0061 22.45 20.8833L20 18.4333L17.55 20.8833C17.3131 21.1041 16.9997 21.2243 16.6758 21.2186C16.352 21.2129 16.043 21.0817 15.814 20.8527C15.585 20.6237 15.4538 20.3147 15.4481 19.9909C15.4424 19.667 15.5626 19.3536 15.7834 19.1166L18.2334 16.6666L15.7834 14.2166C15.5493 13.9823 15.4178 13.6646 15.4178 13.3333C15.4178 13.0021 15.5493 12.6844 15.7834 12.45ZM11.25 25.8333C11.25 25.5018 11.3817 25.1839 11.6162 24.9494C11.8506 24.715 12.1685 24.5833 12.5 24.5833H27.5C27.8316 24.5833 28.1495 24.715 28.3839 24.9494C28.6183 25.1839 28.75 25.5018 28.75 25.8333C28.75 26.1648 28.6183 26.4828 28.3839 26.7172C28.1495 26.9516 27.8316 27.0833 27.5 27.0833H12.5C12.1685 27.0833 11.8506 26.9516 11.6162 26.7172C11.3817 26.4828 11.25 26.1648 11.25 25.8333Z" fill="white"/>
</svg>
