<svg width="20" height="20" viewBox="0 0 20 20" fill="none" xmlns="http://www.w3.org/2000/svg">
<path d="M2.5 8.5283L3.1225 8.47497C3.10815 8.3149 3.0327 8.16651 2.9118 8.06061C2.79091 7.95472 2.63387 7.89947 2.4733 7.90633C2.31273 7.9132 2.16098 7.98165 2.04957 8.09748C1.93815 8.2133 1.87563 8.36759 1.875 8.5283H2.5ZM16.8633 10.0475L16.275 13.4475L17.5075 13.6608L18.095 10.2608L16.8633 10.0475ZM11.0375 17.7083H7.16333V18.9583H11.0375V17.7083ZM6.40417 17.0108L5.7275 9.1833L4.48167 9.2908L5.15917 17.1183L6.40417 17.0108ZM16.275 13.4475C15.8525 15.8891 13.6508 17.7083 11.0375 17.7083V18.9583C14.2258 18.9583 16.9758 16.7341 17.5075 13.6608L16.275 13.4475ZM11.0458 4.24997L10.4933 7.6208L11.7267 7.82247L12.2792 4.45247L11.0458 4.24997ZM5.99 8.5383L7.18917 7.50497L6.3725 6.5583L5.175 7.59164L5.99 8.5383ZM9.37 4.1433L9.76667 2.61497L8.55667 2.30164L8.16 3.82914L9.37 4.1433ZM10.365 2.31497L10.4858 2.35414L10.8683 1.16414L10.7475 1.12497L10.365 2.31497ZM8.77 5.67997C9.03016 5.19323 9.231 4.67742 9.37 4.1433L8.16 3.82914C8.04517 4.26771 7.87961 4.69141 7.66667 5.09164L8.77 5.67997ZM10.4858 2.35414C10.6046 2.39052 10.7122 2.45613 10.799 2.54494C10.8858 2.63376 10.9489 2.74377 10.9825 2.8633L12.1925 2.54914C12.1067 2.22522 11.9403 1.92831 11.7088 1.68612C11.4772 1.44392 11.1881 1.26434 10.8683 1.16414L10.4858 2.35414ZM9.76667 2.61497C9.78353 2.55507 9.8131 2.4995 9.85336 2.45204C9.89363 2.40459 9.94364 2.36637 10 2.33997L9.4575 1.21414C9.01417 1.42747 8.68083 1.82247 8.55667 2.30164L9.76667 2.61497ZM10 2.33997C10.1141 2.28583 10.2445 2.27689 10.365 2.31497L10.7475 1.12497C10.3219 0.988913 9.86035 1.02082 9.4575 1.21414L10 2.33997ZM11.795 9.1533H16.1117V7.9033H11.795V9.1533ZM3.9325 17.8383L3.1225 8.47497L1.8775 8.58247L2.68583 17.9458L3.9325 17.8383ZM3.125 17.9275V8.5283H1.875V17.9275H3.125ZM2.68583 17.9458C2.68329 17.9155 2.68791 17.885 2.69778 17.8563C2.70765 17.8275 2.72339 17.8012 2.744 17.7788C2.76461 17.7565 2.78964 17.7387 2.8175 17.7266C2.84536 17.7144 2.87544 17.7082 2.90583 17.7083V18.9583C3.51083 18.9583 3.98417 18.44 3.9325 17.8383L2.68583 17.9458ZM12.2792 4.45247C12.3839 3.81896 12.3544 3.17051 12.1925 2.54914L10.9825 2.8633C11.1007 3.31596 11.1223 3.78843 11.0458 4.24997L12.2792 4.45247ZM7.16333 17.7083C6.97251 17.708 6.78873 17.6362 6.64821 17.5071C6.50769 17.378 6.42062 17.2009 6.40417 17.0108L5.15917 17.1183C5.20253 17.6201 5.4324 18.0874 5.80342 18.4281C6.17444 18.7687 6.65966 18.9579 7.16333 18.9583V17.7083ZM7.18917 7.50497C7.75583 7.01664 8.36583 6.4358 8.77 5.67997L7.66667 5.09164C7.37833 5.63247 6.91917 6.0883 6.3725 6.5583L7.18917 7.50497ZM18.095 10.2608C18.1452 9.97163 18.1315 9.67498 18.055 9.39163C17.9784 9.10829 17.8409 8.84511 17.6519 8.62052C17.463 8.39593 17.2272 8.21536 16.9612 8.09147C16.6951 7.96758 16.4052 7.90336 16.1117 7.9033V9.1533C16.5842 9.1533 16.945 9.57997 16.8633 10.0475L18.095 10.2608ZM2.90583 17.7083C3.0275 17.7083 3.125 17.8066 3.125 17.9275H1.875C1.875 18.4958 2.33583 18.9583 2.90583 18.9583V17.7083ZM10.4933 7.6208C10.4623 7.80962 10.4727 8.00294 10.5238 8.18734C10.5749 8.37174 10.6655 8.54281 10.7893 8.68869C10.9132 8.83457 11.0673 8.95176 11.2409 9.03213C11.4146 9.11251 11.6036 9.1533 11.795 9.1533V7.9033C11.7848 7.90335 11.7748 7.90199 11.7656 7.8977C11.7563 7.89342 11.7482 7.88716 11.7416 7.87936C11.7351 7.87156 11.7304 7.86242 11.7278 7.85259C11.7252 7.84275 11.7248 7.83247 11.7267 7.82247L10.4933 7.6208ZM5.7275 9.1833C5.71734 9.06264 5.73507 8.94128 5.78084 8.82916C5.82661 8.71705 5.89829 8.61738 5.99 8.5383L5.17333 7.5908C4.93179 7.79925 4.74314 8.06203 4.6229 8.35756C4.50266 8.65309 4.45426 8.97293 4.48167 9.2908L5.7275 9.1833Z" fill="black"/>
</svg>
