<svg width="27" height="27" viewBox="0 0 27 27" fill="none" xmlns="http://www.w3.org/2000/svg">
<path fill-rule="evenodd" clip-rule="evenodd" d="M21.815 5.28913C22.0874 5.1745 22.3855 5.13496 22.6783 5.17464C22.9711 5.21431 23.248 5.33175 23.48 5.51472C23.7121 5.69769 23.8908 5.93951 23.9977 6.21501C24.1045 6.49051 24.1356 6.78962 24.0876 7.0812L21.588 22.2433C21.3455 23.7058 19.7408 24.5445 18.3995 23.816C17.2775 23.2065 15.6111 22.2675 14.1122 21.2877C13.3628 20.7973 11.067 19.2267 11.3492 18.1092C11.5916 17.1536 15.4491 13.5629 17.6534 11.428C18.5186 10.5893 18.124 10.1055 17.1023 10.877C14.5652 12.7925 10.4917 15.7054 9.1449 16.5254C7.9568 17.2484 7.3374 17.3718 6.59677 17.2484C5.24555 17.0236 3.99242 16.6753 2.96964 16.251C1.58757 15.6778 1.6548 13.7778 2.96854 13.2245L21.815 5.28913Z" fill="#1784E2"/>
</svg>
